<svg xmlns="http://www.w3.org/2000/svg" xmlns:xlink="http://www.w3.org/1999/xlink">
  <symbol id="product" viewBox="0 0 511.994 511.994"><g><path d="m508.711 435.996-49.92-99.32c-1.054-2.097-3.029-3.58-5.336-4.007-2.308-.427-4.683.251-6.417 1.832-3.525 3.213-8.113 4.983-12.917 4.983-10.615 0-19.25-8.64-19.25-19.26 0-9.176 6.526-17.12 15.519-18.891 2.3-.453 4.256-1.955 5.287-4.06s1.018-4.571-.034-6.666l-12.571-25.023c-6.032-11.994-18.12-19.445-31.545-19.446-.001 0-.002 0-.003 0-1.298 0-2.577.09-3.846.227-.329-18.527-.806-37.078-1.439-55.279-.635-18.389-6.042-36.35-15.638-51.942-2.171-3.528-6.791-4.628-10.318-2.456-3.527 2.171-4.627 6.791-2.456 10.318 8.235 13.381 12.876 28.803 13.421 44.6.687 19.713 1.191 39.839 1.518 59.898-5.355 3.355-9.808 8.157-12.784 14.072l-36.693 73.009c-14.205-22.076-34.094-39.201-57.297-39.201-40.472 0-70.865 52.09-78.583 91.697h-.485c-3.958-20.31-13.879-43.897-28.064-62.066-.102-14.291-.104-28.647-.017-43.033 7.749.154 15.516.255 23.304.255 19.46 0 38.999-.479 58.383-1.433 13.141-.647 23.806-10.599 25.36-23.664 2.098-17.642 2.098-35.533 0-53.175-1.554-13.065-12.218-23.017-25.356-23.663-26.229-1.29-52.791-1.701-79.085-1.243 3.91-30.791 22.989-57.27 51.366-70.67h106.366c7.459 3.522 14.42 8.046 20.699 13.491 1.419 1.231 3.168 1.834 4.91 1.834 2.099 0 4.187-.876 5.67-2.586 2.713-3.129 2.376-7.866-.753-10.58-3.379-2.93-6.937-5.621-10.635-8.089 6.486-5.093 10.665-12.998 10.665-21.865 0-12.728-8.602-23.477-20.295-26.759v-26.522c-.003-17.266-14.049-31.313-31.316-31.313h-64.261c-17.266 0-31.313 14.047-31.313 31.313v26.524c-11.694 3.282-20.296 14.031-20.296 26.759 0 8.866 4.177 16.769 10.661 21.862-11.323 7.552-21.146 17.243-28.883 28.612-11.265 16.553-17.586 35.924-18.279 56.016-1.407 40.604-2.068 81.649-1.976 122.273-10.498-8.599-22.448-13.974-35.439-13.974-18.236 0-36.689 11.165-51.96 31.438-2.493 3.308-1.831 8.011 1.478 10.503 3.309 2.493 8.011 1.831 10.503-1.478 7.164-9.51 21.884-25.463 39.98-25.463 14.095 0 28.902 9.871 41.695 27.793 10.13 14.192 17.9 31.947 21.582 48.904h-126.562c1.916-8.8 4.963-17.919 8.979-26.796 1.707-3.774.032-8.217-3.742-9.925-3.773-1.707-8.217-.032-9.925 3.742-4.925 10.887-8.527 22.159-10.601 32.978h-10.298c-10.729 0-19.457 8.728-19.457 19.457 0 10.728 8.729 19.457 19.457 19.457h3.686c1.245 11.49 3.344 22.941 5.397 34.075 1.463 7.934 2.976 16.139 4.126 24.135 1.558 10.797 10.19 19.198 20.996 20.431 19.664 2.235 37.156 3.353 54.655 3.353 17.473 0 34.953-1.114 54.602-3.343 3.586-.408 6.923-1.612 9.854-3.413 7.654 4.435 16.278 6.759 25.257 6.759h67.96l-.019-.005c17.504.001 35.005-1.116 54.679-3.352 5.21-.594 9.905-2.867 13.556-6.26 18.556 6.406 37.858 9.555 57.074 9.555 39.084 0 77.797-12.983 109.075-37.856 11.374-9.037 14.884-25.051 8.344-38.078zm-291.159-404.683c0-8.995 7.318-16.313 16.313-16.313h64.261c8.995 0 16.313 7.318 16.313 16.313v25.487h-96.887zm-7.5 40.487h111.887c7.056 0 12.795 5.74 12.795 12.795 0 7.056-5.74 12.796-12.795 12.796h-111.887c-7.056 0-12.796-5.74-12.796-12.796 0-7.055 5.741-12.795 12.796-12.795zm29.743 127.486c5.802.285 10.512 4.681 11.198 10.452 1.958 16.467 1.958 33.166 0 49.632-.686 5.771-5.397 10.168-11.202 10.453-26.855 1.322-54.004 1.708-80.825 1.173.257-24.325.782-48.687 1.574-72.915 26.344-.484 52.967-.087 79.255 1.205zm133.585 73.03c3.522-6.999 10.303-11.177 18.142-11.177h.002c7.84.001 14.624 4.182 18.145 11.183l8.768 17.452c-11.148 5.761-18.566 17.407-18.566 30.451 0 18.891 15.364 34.26 34.25 34.26 5.289 0 10.435-1.208 15.08-3.489l41.962 83.486c-.045.036-.086.076-.131.112-21.096 16.779-46.322 28.002-72.95 32.456-24.004 4.015-48.769 2.483-72.038-4.381 1.97-10.695 3.943-21.665 5.134-32.674h3.69c10.729 0 19.457-8.728 19.457-19.457s-8.728-19.457-19.457-19.457h-10.296c-2.279-11.695-6.534-24.476-12.444-36.686zm-149.087 69.864c12.794-17.924 27.603-27.795 41.697-27.795 14.098 0 28.907 9.871 41.7 27.795 10.129 14.191 17.898 31.946 21.579 48.903h-126.558c3.681-16.955 11.451-34.71 21.582-48.903zm-209.281 68.36c0-2.458 2-4.457 4.457-4.457h335.399c2.458 0 4.457 1.999 4.457 4.457 0 2.457-1.999 4.457-4.457 4.457h-335.399c-2.458-.001-4.457-2-4.457-4.457zm167.595 82.934c.651-1.674 1.135-3.433 1.399-5.27.701-4.917 1.533-10.776 2.403-17.028.06-.424.092-.658.757-.658.666 0 .698.234.757.652.871 6.259 1.703 12.118 2.405 17.043.439 3.049 1.461 5.897 2.924 8.457-3.712-.497-7.291-1.572-10.645-3.196zm136.357.26c-38.085 4.328-67.768 4.331-105.865.01-4.083-.465-7.342-3.617-7.923-7.657-.699-4.903-1.528-10.744-2.398-16.992-1.12-7.994-7.541-13.577-15.613-13.576-8.072 0-14.492 5.583-15.612 13.583-.869 6.241-1.698 12.083-2.396 16.977-.582 4.048-3.841 7.2-7.921 7.665-38.104 4.321-67.787 4.318-105.865-.01-4.035-.46-7.262-3.614-7.847-7.667-1.192-8.286-2.732-16.639-4.222-24.716-1.903-10.318-3.844-20.913-5.054-31.355h297.836c-1.212 10.47-3.158 21.094-5.065 31.44-1.484 8.052-3.019 16.377-4.211 24.637-.584 4.051-3.811 7.201-7.844 7.661zm172.068-31.4c-41.996 33.395-98.652 43.323-149.523 26.659.046-.26.108-.514.146-.776.511-3.539 1.098-7.119 1.714-10.698 15.67 4.462 31.935 6.725 48.229 6.725 9.684 0 19.378-.797 28.959-2.399 27.71-4.635 54.023-15.983 76.403-32.888.288 5.049-1.81 10.105-5.928 13.377z"/><path d="m398.513 433.389c5.054 7.351 12.668 12.293 21.439 13.917 2.052.38 4.109.568 6.151.568 6.69 0 13.219-2.014 18.851-5.886 7.351-5.054 12.293-12.668 13.917-21.439 1.625-8.771-.265-17.65-5.318-25.001-5.054-7.351-12.668-12.293-21.439-13.917-8.774-1.624-17.65.265-25.001 5.318-7.351 5.054-12.293 12.668-13.917 21.439-1.626 8.772.263 17.651 5.317 25.001zm9.431-22.27c.895-4.832 3.618-9.026 7.667-11.81 3.102-2.133 6.698-3.242 10.383-3.242 1.125 0 2.259.104 3.388.313 4.832.895 9.026 3.617 11.811 7.667 2.784 4.049 3.824 8.94 2.93 13.772-.895 4.832-3.618 9.026-7.667 11.81-4.05 2.784-8.942 3.824-13.771 2.93-4.832-.895-9.026-3.617-11.811-7.667-2.784-4.05-3.825-8.941-2.93-13.773z"/><path d="m367.015 388.403c1.496.277 2.996.414 4.485.414 4.877 0 9.637-1.469 13.743-4.291 5.359-3.685 8.962-9.236 10.146-15.63 1.185-6.395-.193-12.868-3.877-18.228s-9.236-8.963-15.63-10.147c-13.201-2.443-25.93 6.307-28.374 19.508-2.446 13.201 6.306 25.93 19.507 28.374zm-4.759-25.643c.938-5.068 5.826-8.43 10.894-7.489 2.455.455 4.586 1.838 6.001 3.896s1.943 4.543 1.489 6.998c-.455 2.455-1.838 4.587-3.896 6.001-2.057 1.415-4.54 1.944-6.998 1.489-5.068-.94-8.428-5.827-7.49-10.895z"/></g></symbol>
  <symbol id="debt" viewBox="0 0 512 512"><g id="flat"><path d="m376 127.622c50.33 48.128 112 126.84 112 184.378 0 97.2-78.8 152-176 152s-176-54.8-176-152c0-57.388 61.348-135.88 111.6-184z" fill="#39b54a"/><path d="m463.907 237.588c-32.34 93.366-121.038 160.412-225.407 160.412a237.9 237.9 0 0 1 -86.031-16c28.037 53.08 88.923 82 159.531 82 97.2 0 176-54.8 176-152 0-22.585-9.5-48.433-24.093-74.412z" fill="#009245"/><path d="m247.605 128 128.4-.38 21.384-64.249c6.27-18.838-14.4-35.2-31.164-24.675a21.008 21.008 0 0 1 -26.078-2.984 39.666 39.666 0 0 0 -56.284 0 21.008 21.008 0 0 1 -26.083 2.988l-.3-.192c-16.735-10.508-37.38 5.77-31.194 24.592z" fill="#39b54a"/><rect fill="#8c6239" height="32" rx="16" width="176" x="224" y="88"/><rect fill="#603813" height="32" rx="16" width="176" x="224" y="120"/><path d="m232 264v-32l80-24 80 24v32z" fill="#666"/><g fill="#ccc"><path d="m232 272h16v80h-16z"/><path d="m280 272h16v80h-16z"/><path d="m376 272h16v80h-16z"/><path d="m328 272h16v80h-16z"/></g><path d="m439.029 416a36.336 36.336 0 0 0 -25.715 10.664l-13.314 13.336-40 8h-48l-88-32 53.223-5.914a21.108 21.108 0 0 0 18.777-20.978 21.107 21.107 0 0 0 -21.107-21.108h-74.893l-80 16h-24v72h24l184 32h64l56-16 27.029-27.03a16.967 16.967 0 0 0 4.971-12 16.971 16.971 0 0 0 -16.971-16.97z" fill="#fccca7"/><path d="m216 256h192v32h-192z" fill="#808080"/><path d="m216 336h192v32h-192z" fill="#808080"/><path d="m280 381.108a21.108 21.108 0 0 1 -18.777 20.978l-45.223 5.914 8 8 53.223-5.914a21.1 21.1 0 0 0 -1.784-42.058 21 21 0 0 1 4.561 13.08z" fill="#e5b391"/><path d="m439.029 416c-.531 0-1.06.016-1.589.04a16.86 16.86 0 0 1 2.56 8.93 16.967 16.967 0 0 1 -4.971 12l-27.029 27.03-56 16h-64l-184-32h-8v8h24l184 32h64l56-16 27.029-27.03a16.967 16.967 0 0 0 4.971-12 16.971 16.971 0 0 0 -16.971-16.97z" fill="#e5b391"/><path d="m24 368h96v120h-96z" fill="#ffc841"/><path d="m24 464h96v24h-96z" fill="#f2b630"/><path d="m354.367 368h53.633v-32h-9.112a239.2 239.2 0 0 1 -44.521 32z" fill="#666"/></g></symbol>
  <symbol id="clients" viewBox="0 0 511.999 511.999"><g><g><path d="M344.214,276.755l-43.582-19.37c-3.079-1.368-5.067-4.429-5.067-7.797V237.62c14.64-11.665,24.05-29.628,24.05-49.758 v-16.847c4.823-2.665,8.016-7.815,8.016-13.583v-1.635c0-35.076-28.537-63.613-63.613-63.613h-16.032 c-35.076,0-63.613,28.537-63.613,63.613v14.835c0,5.07,2.182,9.663,5.985,12.602c0.645,0.498,1.324,0.936,2.031,1.315v3.312 c0,20.13,9.409,38.093,24.048,49.757v11.969c0,3.368-1.989,6.429-5.067,7.797l-43.582,19.37 c-14.273,6.343-23.496,20.535-23.496,36.154v99.404c0,4.142,3.358,7.5,7.5,7.5c4.142,0,7.5-3.358,7.5-7.5v-99.403 c0-0.869,0.062-1.728,0.152-2.58l20.082,20.082c3.125,3.126,4.847,7.281,4.847,11.702v70.2c0,4.142,3.358,7.5,7.5,7.5 c4.142,0,7.5-3.358,7.5-7.5v-70.2c0-8.427-3.281-16.349-9.24-22.308l-23.941-23.942c2.157-2.238,4.745-4.093,7.689-5.402 l42.847-19.043l31.775,31.775v109.119c0,4.142,3.358,7.5,7.5,7.5s7.5-3.358,7.5-7.5V303.194l31.775-31.775l42.846,19.042 c2.944,1.309,5.532,3.164,7.689,5.403l-23.941,23.941c-5.959,5.959-9.24,13.881-9.24,22.308v70.2c0,4.142,3.358,7.5,7.5,7.5 c4.142,0,7.5-3.358,7.5-7.5v-70.2c0-4.42,1.721-8.576,4.847-11.702l20.081-20.081c0.09,0.852,0.152,1.709,0.152,2.578v99.404 c0,4.142,3.358,7.5,7.5,7.5c4.142,0,7.5-3.358,7.5-7.5v-99.403C367.709,297.29,358.487,283.098,344.214,276.755z M256,289.481 l-27.881-27.882c2.12-3.567,3.317-7.694,3.317-12.011v-3.052c7.563,3.178,15.862,4.939,24.565,4.939s17.001-1.76,24.563-4.938 v3.051c0,4.318,1.197,8.444,3.318,12.012L256,289.481z M256.001,236.474c-26.805,0.001-48.613-21.807-48.613-48.612v-3.373 c4.68-1.855,9.248-4.807,13.621-8.842c3.043-2.809,3.234-7.554,0.424-10.598c-2.809-3.043-7.553-3.234-10.598-0.425 c-3.751,3.463-7.499,5.7-11.137,6.65c-0.088,0.023-0.153,0.033-0.199,0.037c-0.054-0.105-0.127-0.325-0.127-0.678v-14.835 c0-26.805,21.808-48.613,48.613-48.613h16.032c26.806,0,48.613,21.808,48.613,48.613v1.635c0,0.243-0.146,0.454-0.338,0.492 c-44.911,8.87-67.437-7.847-75.037-15.447c-2.929-2.929-7.678-2.929-10.606,0c-2.929,2.929-2.929,7.678,0,10.606 c23.29,23.29,57.275,23.71,77.965,21.224v13.553C304.614,214.666,282.806,236.474,256.001,236.474z"></path></g></g><g><g><path d="M135.242,235.961v-16.035c0-19.566-10.168-36.79-25.489-46.702c0.946-3.035,1.44-6.214,1.44-9.411 c0-17.396-14.152-31.548-31.548-31.548s-31.548,14.153-31.548,31.548c0,3.237,0.49,6.385,1.438,9.413 c-15.32,9.911-25.487,27.135-25.487,46.7v16.032c0,18.947,9.533,35.701,24.048,45.743v16.493c0,3.253-1.807,6.177-4.716,7.632 l-25.941,12.97C6.682,324.176,0,334.988,0,347.015v65.299c0,4.142,3.358,7.5,7.5,7.5s7.5-3.358,7.5-7.5v-62.055l12.218,12.218 c3.125,3.126,4.847,7.281,4.847,11.702v38.135c0,4.142,3.358,7.5,7.5,7.5c4.142,0,7.5-3.358,7.5-7.5v-38.135 c0-8.427-3.282-16.349-9.24-22.308L20.82,334.866c-0.082-0.082-0.17-0.153-0.254-0.23c1.067-0.942,2.264-1.762,3.582-2.422 l25.941-12.97c1.329-0.665,2.566-1.45,3.719-2.322l18.337,18.338v77.055c0,4.142,3.358,7.5,7.5,7.5c4.142,0,7.5-3.358,7.5-7.5 v-77.056l18.338-18.338c1.154,0.873,2.39,1.658,3.719,2.322l7.153,3.577c1.077,0.539,2.221,0.794,3.349,0.794 c2.751,0,5.4-1.52,6.714-4.147c1.853-3.705,0.351-8.21-3.354-10.062l-7.153-3.577c-2.91-1.455-4.717-4.379-4.717-7.631v-16.493 C125.709,271.662,135.242,254.907,135.242,235.961z M79.645,147.265c9.125,0,16.548,7.424,16.548,16.548 c0,1.005-0.09,1.99-0.262,2.955c-5.154-1.582-10.621-2.439-16.286-2.439c-5.657,0-11.117,0.854-16.263,2.432 c-0.173-0.965-0.285-1.945-0.285-2.948C63.097,154.688,70.52,147.265,79.645,147.265z M79.645,179.33 c22.385,0,40.597,18.212,40.597,40.597v2.718c-31.225,9.56-49.834-14.193-50.629-15.234c-1.305-1.739-3.3-2.827-5.468-2.981 c-2.168-0.152-4.298,0.641-5.835,2.178c-7.159,7.159-14.171,10.612-19.235,12.279C39.63,196.981,57.609,179.33,79.645,179.33z M79.645,321.545l-17.331-17.331c0.506-1.934,0.783-3.95,0.783-6.019v-9.155c5.229,1.634,10.788,2.515,16.548,2.515 s11.319-0.881,16.548-2.515v9.155c0,2.069,0.277,4.086,0.783,6.019L79.645,321.545z M79.645,276.555 c-22.385,0-40.597-18.212-40.597-40.597v-1.554c5.981-1.374,14.849-4.567,24.1-12.007c3.273,3.088,7.951,6.876,13.908,10.125 c7.046,3.843,16.777,7.398,28.663,7.398c4.517,0,9.35-0.525,14.459-1.731C119.015,259.541,101.281,276.555,79.645,276.555z"></path></g></g><g><g><path d="M494.561,302.765l-41.973-20.987c-2.909-1.455-4.716-4.379-4.716-7.631v-10.629c9.825-8.723,16.032-21.435,16.032-35.575 v-8.537c0.173,0,0.343,0.005,0.516,0.005c4.142,0,7.5-3.358,7.5-7.5v-16.032c0-26.236-21.345-47.581-47.581-47.581h-16.032 c-26.236,0-47.581,21.345-47.581,47.581v16.032c0,4.142,3.358,7.5,7.5,7.5c0.062,0,0.242-0.002,0.516-0.013v8.545 c0,14.141,6.208,26.853,16.033,35.576v10.629c0,3.253-1.807,6.177-4.717,7.631c-3.705,1.852-5.207,6.357-3.354,10.062 c1.314,2.628,3.963,4.148,6.714,4.148c1.127,0,2.271-0.255,3.348-0.793c1.329-0.665,2.566-1.45,3.719-2.322l18.338,18.338v101.103 c0,4.142,3.358,7.5,7.5,7.5c4.142,0,7.5-3.358,7.5-7.5V311.21l18.337-18.338c1.154,0.873,2.39,1.658,3.719,2.322l40.615,20.308 l-12.319,12.319c-5.958,5.959-9.24,13.881-9.24,22.308v62.184c0,4.142,3.358,7.5,7.5,7.5c4.142,0,7.5-3.358,7.5-7.5v-62.184 c0-4.42,1.721-8.576,4.847-11.702l11.669-11.669c0.354,1.357,0.548,2.772,0.548,4.224v81.331c0,4.142,3.358,7.5,7.5,7.5 c4.142,0,7.5-3.358,7.5-7.5v-81.331C512,318.956,505.318,308.144,494.561,302.765z M375.725,202.868v-6.99h0.001 c0-17.965,14.616-32.581,32.581-32.581h16.032c17.965,0,32.581,14.616,32.581,32.581v8.331 c-32.603-1.759-52.278-14.446-52.469-14.571c-1.269-0.846-2.717-1.26-4.158-1.26c-1.936,0-3.856,0.748-5.306,2.197 C387.811,197.751,380.78,201.205,375.725,202.868z M416.323,297.497l-17.331-17.331c0.506-1.934,0.783-3.95,0.783-6.019v-1.597 c5.156,1.919,10.731,2.973,16.548,2.973c5.817,0,11.392-1.054,16.548-2.973v1.597c0,2.069,0.276,4.085,0.783,6.019 L416.323,297.497z M416.323,260.524c-17.965,0-32.581-14.615-32.581-32.581v-12.091h0c5.253-2.099,11.373-5.436,17.601-10.742 c7.876,4.098,24.354,11.181,47.561,13.521v9.312C448.904,245.908,434.288,260.524,416.323,260.524z"></path></g></g></symbol>
  <symbol id="create-application" enable-background="new 0 0 512 512" viewBox="0 0 512 512"><g><path d="m219.977 15h29.743c1.687 0 3.339.203 4.945.562v96.474c0 19.08 15.496 34.603 34.542 34.603h96.263c.354 1.595.553 3.235.553 4.908v50.453c0 4.142 3.358 7.5 7.5 7.5s7.5-3.358 7.5-7.5v-50.453c0-10.001-3.891-19.408-10.955-26.488l-113.804-114.047c-7.086-7.101-16.513-11.012-26.545-11.012h-29.743c-4.142 0-7.5 3.358-7.5 7.5s3.359 7.5 7.501 7.5zm155.467 116.639h-86.237c-10.775 0-19.542-8.793-19.542-19.603v-86.401z"/><path d="m38.523 112.5c4.142 0 7.5-3.358 7.5-7.5v-57.5c0-17.92 14.58-32.5 32.5-32.5h106.454c4.142 0 7.5-3.358 7.5-7.5s-3.358-7.5-7.5-7.5h-106.454c-26.191 0-47.5 21.309-47.5 47.5v57.5c0 4.142 3.358 7.5 7.5 7.5z"/><path d="m95.93 157.5h123.701c4.142 0 7.5-3.358 7.5-7.5s-3.358-7.5-7.5-7.5h-123.701c-4.142 0-7.5 3.358-7.5 7.5s3.358 7.5 7.5 7.5z"/><path d="m95.93 322.5c-4.142 0-7.5 3.357-7.5 7.5s3.358 7.5 7.5 7.5h123.701c4.142 0 7.5-3.357 7.5-7.5s-3.358-7.5-7.5-7.5z"/><path d="m317.93 202.5h-224c-4.142 0-7.5 3.358-7.5 7.5s3.358 7.5 7.5 7.5h224c4.142 0 7.5-3.358 7.5-7.5s-3.357-7.5-7.5-7.5z"/><path d="m325.43 270c0-4.143-3.358-7.5-7.5-7.5h-224c-4.142 0-7.5 3.357-7.5 7.5s3.358 7.5 7.5 7.5h224c4.143 0 7.5-3.357 7.5-7.5z"/><path d="m401.023 297.936v-60.936c0-4.142-3.358-7.5-7.5-7.5s-7.5 3.358-7.5 7.5v57.903c-4.6-.594-9.288-.903-14.046-.903-14.311 0-28.225 2.732-41.355 8.121-3.832 1.572-5.664 5.954-4.091 9.786 1.573 3.831 5.952 5.664 9.786 4.091 11.315-4.644 23.313-6.998 35.661-6.998 6.867 0 13.561.747 20.013 2.152.012.002.023.005.035.008 42.231 9.211 73.952 46.888 73.952 91.841 0 51.832-42.168 94-94 94s-94-42.168-94-94c0-26.496 11.272-51.901 30.927-69.699 3.07-2.78 3.306-7.523.525-10.594-2.78-3.069-7.522-3.306-10.594-.525-22.789 20.637-35.859 50.094-35.859 80.818 0 16.037 3.483 31.275 9.73 45h-194.184c-17.92 0-32.5-14.579-32.5-32.5v-275.501c0-4.142-3.358-7.5-7.5-7.5s-7.5 3.358-7.5 7.5v275.5c0 26.191 21.309 47.5 47.5 47.5h202.501c19.526 29.501 53.003 49 90.952 49 60.103 0 109-48.897 109-109 .001-50.047-33.906-92.318-79.953-105.064z"/><path d="m371.977 340c-12.407 0-22.5 10.094-22.5 22.5v18h-18c-12.407 0-22.5 10.094-22.5 22.5s10.093 22.5 22.5 22.5h18v18c0 12.406 10.093 22.5 22.5 22.5s22.5-10.094 22.5-22.5v-18h18c12.407 0 22.5-10.094 22.5-22.5s-10.093-22.5-22.5-22.5h-18v-18c0-12.406-10.093-22.5-22.5-22.5zm40.5 55.5c4.136 0 7.5 3.364 7.5 7.5s-3.364 7.5-7.5 7.5h-25.5c-4.142 0-7.5 3.357-7.5 7.5v25.5c0 4.136-3.364 7.5-7.5 7.5s-7.5-3.364-7.5-7.5v-25.5c0-4.143-3.358-7.5-7.5-7.5h-25.5c-4.136 0-7.5-3.364-7.5-7.5s3.364-7.5 7.5-7.5h25.5c4.142 0 7.5-3.357 7.5-7.5v-25.5c0-4.136 3.364-7.5 7.5-7.5s7.5 3.364 7.5 7.5v25.5c0 4.143 3.358 7.5 7.5 7.5z"/></g></symbol>
  <symbol id="no-img-color" viewBox="0 0 64 64"><rect width="62" height="46" x="1" y="9" fill="#bbdef9" rx="3" ry="3"/><path fill="#def0ff" d="M37.9 55.1L63.49 29.51 63 12 19.9 55.1 37.9 55.1zM15.37 54.93L8.81 54.93 55 8.74 61.56 8.74 15.37 54.93zM4.33 54.67L1 54 46 9 50 9 4.33 54.67z"/><path fill="#97e0bb" d="M48 51.13L33.38 36.63 19 51 48 51.13z"/><path fill="#72caaf" d="M62.34 47.26L47.87 34 30 51.87 62.34 51.87 62.34 47.26z"/><path fill="#72caaf" d="M4,51H60a3,3,0,0,1,3,3v1a0,0,0,0,1,0,0H1a0,0,0,0,1,0,0V54A3,3,0,0,1,4,51Z" transform="rotate(-180 32 53)"/><path fill="#ffeb9b" d="M17 21A4 4 0 1 0 17 29A4 4 0 1 0 17 21Z"/><path fill="#8d6c9f" d="M22.07 25a5 5 0 1 0-5 5A5 5 0 0 0 22.07 25zm-5 3a3 3 0 1 1 3-3A3 3 0 0 1 17.07 28zM16 33v2a1 1 0 0 0 2 0V33a1 1 0 0 0-2 0zM17 18a1 1 0 0 0 1-1V15a1 1 0 1 0-2 0v2A1 1 0 0 0 17 18zM24 25a1 1 0 0 0 1 1h2a1 1 0 0 0 0-2H25A1 1 0 0 0 24 25zM7 26H9a1 1 0 0 0 0-2H7a1 1 0 1 0 0 2zM21.13 34.16a1 1 0 0 0 .87.5.84.84 0 0 0 .5-.14 1 1 0 0 0 .37-1.37l-1-1.73a1 1 0 0 0-1.73 1zM12.13 18.57a1 1 0 0 0 .87.5.84.84 0 0 0 .5-.14 1 1 0 0 0 .37-1.37l-1-1.73a1 1 0 0 0-1.73 1zM23.06 21.5a1.05 1.05 0 0 0 .88.53.84.84 0 0 0 .48-.16l1.73-1a1 1 0 1 0-1-1.73l-1.73 1A1 1 0 0 0 23.06 21.5zM10.94 28.5a1 1 0 0 0-1.37-.37l-1.73 1a1 1 0 0 0-.37 1.37 1.05 1.05 0 0 0 .88.53.84.84 0 0 0 .48-.16l1.73-1A1 1 0 0 0 10.94 28.5zM23.43 29.87l1.73 1a.84.84 0 0 0 .48.16 1.05 1.05 0 0 0 .88-.53 1 1 0 0 0-.37-1.37l-1.73-1a1 1 0 1 0-1 1.73zM7.84 20.87l1.73 1a.84.84 0 0 0 .48.16 1.05 1.05 0 0 0 .88-.53 1 1 0 0 0-.37-1.37l-1.73-1a1 1 0 1 0-1 1.73zM20.5 18.94a.84.84 0 0 0 .5.14 1 1 0 0 0 .87-.5l1-1.73a1 1 0 1 0-1.73-1l-1 1.73A1 1 0 0 0 20.5 18.94zM12.87 34.16l1-1.73a1 1 0 1 0-1.73-1l-1 1.73a1 1 0 0 0 .37 1.37.84.84 0 0 0 .5.14A1 1 0 0 0 12.87 34.16zM59 50H32.41L47.29 35.12a1 1 0 0 1 1.41 0l9.59 9.59a1 1 0 0 0 1.41-1.41l-9.59-9.59a3.07 3.07 0 0 0-4.24 0l-6.39 6.39L36.1 36.7a3.09 3.09 0 0 0-4.2 0L18.6 50H13a1 1 0 0 0-1 1 1 1 0 0 0 1 1H59a1 1 0 1 0 0-2zM33.3 38.1a1 1 0 0 1 1.4 0l3.39 3.39L29.59 50H21.4zM9 50H5a1 1 0 0 0 0 2H9a1 1 0 0 0 0-2z"/><path fill="#8d6c9f" d="M61,8H3a3,3,0,0,0-3,3V53a3,3,0,0,0,3,3H61a3,3,0,0,0,3-3V11A3,3,0,0,0,61,8Zm1,45a1,1,0,0,1-1,1H3a1,1,0,0,1-1-1V11a1,1,0,0,1,1-1H61a1,1,0,0,1,1,1Z"/></symbol>
  <symbol id="no-img" viewBox="0 0 64 64"><path d="M22.066 25c0-2.752-2.24-4.992-4.992-4.992s-4.992 2.24-4.992 4.992c0 2.752 2.24 4.992 4.992 4.992S22.066 27.752 22.066 25zM17.074 28.008c-1.664 0-3.008-1.344-3.008-3.008 0-1.664 1.344-3.008 3.008-3.008s3.008 1.344 3.008 3.008C20.082 26.664 18.738 28.008 17.074 28.008zM16 33v2c0 .553.4 1 1 1 .6 0 1-.447 1-1v-2c0-.553-.4-1-1-1C16.4 32 16 32.447 16 33zM17 18c.6 0 1-.447 1-1v-2c0-.553-.4-1-1-1-.6 0-1 .447-1 1v2C16 17.552 16.4 18 17 18zM24 25c0 .6.447 1 1 1h2c.553 0 1-.4 1-1 0-.6-.447-1-1-1h-2C24.447 24 24 24.4 24 25zM7 26h2c.553 0 1-.4 1-1 0-.6-.447-1-1-1H7c-.553 0-1 .4-1 1C6 25.6 6.447 26 7 26zM21.134 34.16c.187.324.521.502.867.502.129.023.326-.036.499-.136.52-.3.642-.887.366-1.366l-1-1.732c-.276-.479-.846-.666-1.366-.366-.52.3-.642.887-.366 1.366L21.134 34.16zM12.134 18.571c.187.324.521.502.867.502.129.023.326-.036.499-.136.52-.3.642-.887.366-1.366l-1-1.732c-.276-.479-.846-.666-1.366-.366-.52.3-.642.887-.366 1.366L12.134 18.571zM23.062 21.5c.2.346.523.506.883.529.178.013.323-.071.483-.163l1.732-1c.479-.276.666-.846.366-1.366-.3-.52-.887-.642-1.366-.366l-1.732 1C22.95 20.41 22.762 20.98 23.062 21.5zM10.937 28.5c-.3-.52-.887-.642-1.366-.366l-1.732 1C7.361 29.41 7.173 29.98 7.473 30.5c.2.346.523.506.883.529.178.013.323-.071.483-.163l1.732-1C11.05 29.59 11.237 29.02 10.937 28.5zM23.428 29.867l1.732 1c.16.092.305.176.483.163.36-.023.683-.183.883-.529.3-.52.113-1.09-.366-1.366l-1.732-1c-.479-.276-1.066-.154-1.366.366C22.762 29.02 22.95 29.59 23.428 29.867zM7.839 20.867l1.732 1c.16.092.305.176.483.163.36-.023.683-.183.883-.529.3-.52.113-1.09-.366-1.366l-1.732-1c-.479-.276-1.066-.154-1.366.366C7.173 20.02 7.361 20.59 7.839 20.867zM20.502 18.938c.173.1.37.159.499.136.347 0 .683-.183.867-.502l1-1.732c.276-.479.154-1.066-.366-1.366-.52-.3-1.09-.113-1.366.366l-1 1.732C19.859 18.05 19.982 18.638 20.502 18.938zM12.867 34.161l1-1.732c.276-.479.154-1.066-.366-1.366-.52-.3-1.09-.113-1.366.366l-1 1.732c-.276.479-.154 1.066.366 1.366.173.1.37.159.499.136C12.346 34.662 12.682 34.48 12.867 34.161zM58.981 50H32.414l14.879-14.879c.377-.379 1.036-.379 1.414 0l9.586 9.586c.391.391 1.023.391 1.414 0s.391-1.023 0-1.414l-9.585-9.586c-1.134-1.133-3.11-1.133-4.243 0l-6.386 6.386L36.1 36.7c-1.1-1.1-3.1-1.1-4.2 0L18.6 50h-5.558C12.417 50 12 50.4 12 51c0 .6.521 1 1.042 1h45.939c.521 0 1.042-.4 1.042-1C60.023 50.4 59.502 50 58.981 50zM21.4 50l11.9-11.9c.4-.4 1-.4 1.4 0l3.393 3.393L29.586 50H21.4zM9 50H5c-.6 0-1 .4-1 1 0 .6.4 1 1 1h4c.6 0 1-.4 1-1C10 50.4 9.6 50 9 50z"/><path d="M61,8H3c-1.654,0-3,1.346-3,3v42c0,1.654,1.346,3,3,3h58c1.654,0,3-1.346,3-3V11C64,9.346,62.654,8,61,8z M62,53c0,0.552-0.449,1-1,1H3c-0.551,0-1-0.448-1-1V11c0-0.552,0.449-1,1-1h58c0.551,0,1,0.448,1,1V53z"/></symbol>
  <symbol id="editing" viewBox="0 0 511 512" ><path d="m482.480469 54h-34v-24c0-16.542969-13.457031-30-30-30h-310c-16.542969 0-30 13.457031-30 30v152.53125l-13.128907-13.132812c-7.179687-7.175782-16.71875-11.128907-26.871093-11.128907-10.148438 0-19.691407 3.953125-26.871094 11.128907-14.8125 14.816406-14.8125 38.925781 0 53.742187l66.871094 66.871094v137.988281c0 16.542969 13.457031 30 30 30h34v24c0 16.542969 13.457031 30 30 30h310c16.542969 0 30-13.457031 30-30v-398c0-16.542969-13.457031-30-30-30zm-374-34h310c5.515625 0 10 4.484375 10 10v398c0 5.515625-4.484375 10-10 10h-121.617188l-25.996093-62.03125c-.503907-1.199219-1.234376-2.289062-2.152344-3.207031l-66.589844-66.589844-103.644531-103.640625v-172.53125c0-5.515625 4.488281-10 10-10zm-62.042969 209.679688 25.453125-25.453126 175.609375 175.605469-25.457031 25.457031zm211.742188 167.757812 13.367187 31.898438-31.898437-13.367188zm-232.425782-213.894531c3.398438-3.402344 7.917969-5.273438 12.726563-5.273438 4.808593 0 9.328125 1.871094 12.730469 5.273438l6.539062 6.539062-25.453125 25.457031-6.542969-6.542968c-7.019531-7.015625-7.019531-18.433594 0-25.453125zm72.726563 244.457031v-117.988281l116.492187 116.488281c.917969.917969 2.007813 1.648438 3.207032 2.152344l22.300781 9.347656h-132c-5.511719 0-10-4.484375-10-10zm394 54c0 5.515625-4.484375 10-10 10h-310c-5.511719 0-10-4.484375-10-10v-24h256c16.542969 0 30-13.457031 30-30v-354h34c5.515625 0 10 4.484375 10 10zm0 0"/><path d="m161.480469 74h204c5.523437 0 10-4.476562 10-10s-4.476563-10-10-10h-204c-5.519531 0-10 4.476562-10 10s4.476562 10 10 10zm0 0"/><path d="m365.480469 103.007812h-70c-5.519531 0-10 4.476563-10 10 0 5.519532 4.480469 10 10 10h70c5.523437 0 10-4.480468 10-10 0-5.523437-4.476563-10-10-10zm0 0"/><path d="m365.480469 250.023438h-70c-5.519531 0-10 4.480468-10 10 0 5.523437 4.480469 10 10 10h70c5.523437 0 10-4.476563 10-10 0-5.519532-4.476563-10-10-10zm0 0"/><path d="m231.480469 250.023438h-29.332031c-5.523438 0-10 4.480468-10 10 0 5.523437 4.476562 10 10 10h29.332031c5.523437 0 10-4.476563 10-10 0-5.519532-4.476563-10-10-10zm0 0"/><path d="m365.480469 299.460938h-70c-5.519531 0-10 4.476562-10 10 0 5.523437 4.480469 10 10 10h70c5.523437 0 10-4.476563 10-10 0-5.523438-4.476563-10-10-10zm0 0"/><path d="m161.480469 123.007812h70c5.523437 0 10-4.480468 10-10 0-5.523437-4.476563-10-10-10h-70c-5.519531 0-10 4.476563-10 10 0 5.519532 4.476562 10 10 10zm0 0"/><path d="m161.480469 172.011719h164c5.523437 0 10-4.476563 10-10 0-5.523438-4.476563-10-10-10h-164c-5.519531 0-10 4.476562-10 10 0 5.523437 4.476562 10 10 10zm0 0"/><path d="m365.480469 152.011719c-2.628907 0-5.210938 1.066406-7.070313 2.929687-1.859375 1.859375-2.929687 4.4375-2.929687 7.070313 0 2.628906 1.070312 5.207031 2.929687 7.066406 1.859375 1.863281 4.441406 2.933594 7.070313 2.933594 2.628906 0 5.210937-1.070313 7.070312-2.933594 1.859375-1.859375 2.929688-4.4375 2.929688-7.066406 0-2.632813-1.070313-5.210938-2.929688-7.070313-1.859375-1.863281-4.441406-2.929687-7.070312-2.929687zm0 0"/><path d="m161.480469 221.019531h204c5.523437 0 10-4.476562 10-10 0-5.523437-4.476563-10-10-10h-204c-5.519531 0-10 4.476563-10 10 0 5.523438 4.476562 10 10 10zm0 0"/></symbol>
  <symbol id="manufacture" enable-background="new 0 0 512 512" viewBox="0 0 512 512"><g><path d="m390.889 59.449h25.974c10.934 0 19.828 8.895 19.828 19.828v10.538c0 10.934-8.895 19.829-19.828 19.829-14.574 0-26.432 11.857-26.432 26.432v10.961c0 4.142 3.357 7.5 7.5 7.5s7.5-3.358 7.5-7.5v-10.961c0-6.303 5.128-11.432 11.432-11.432 19.204 0 34.828-15.624 34.828-34.829v-10.538c0-19.204-15.624-34.828-34.828-34.828h-25.974c-6.462 0-11.719-5.257-11.719-11.718v-25.231c0-4.142-3.357-7.5-7.5-7.5s-7.5 3.358-7.5 7.5v25.23c0 14.733 11.986 26.719 26.719 26.719z"/><path d="m352.466 118.361c5.101 0 9.251 4.15 9.251 9.251v12.201c0 4.142 3.357 7.5 7.5 7.5s7.5-3.358 7.5-7.5v-12.201c0-13.372-10.879-24.251-24.251-24.251-5.101 0-9.25-4.15-9.25-9.25v-16.264c0-4.142-3.357-7.5-7.5-7.5s-7.5 3.358-7.5 7.5v16.264c0 13.371 10.879 24.25 24.25 24.25z"/><path d="m407.931 29.328c4.143 0 7.5-3.358 7.5-7.5v-14.261c0-4.142-3.357-7.5-7.5-7.5s-7.5 3.358-7.5 7.5v14.261c0 4.142 3.357 7.5 7.5 7.5z"/><path d="m304.798 452.302c-4.143 0-7.5 3.357-7.5 7.5v7.079c0 4.143 3.357 7.5 7.5 7.5s7.5-3.357 7.5-7.5v-7.079c0-4.142-3.358-7.5-7.5-7.5z"/><path d="m351.638 452.302c-4.143 0-7.5 3.357-7.5 7.5v7.079c0 4.143 3.357 7.5 7.5 7.5s7.5-3.357 7.5-7.5v-7.079c0-4.142-3.358-7.5-7.5-7.5z"/><path d="m398.478 452.302c-4.143 0-7.5 3.357-7.5 7.5v7.079c0 4.143 3.357 7.5 7.5 7.5s7.5-3.357 7.5-7.5v-7.079c0-4.142-3.358-7.5-7.5-7.5z"/><path d="m445.316 452.302c-4.143 0-7.5 3.357-7.5 7.5v7.079c0 4.143 3.357 7.5 7.5 7.5s7.5-3.357 7.5-7.5v-7.079c0-4.142-3.357-7.5-7.5-7.5z"/><path d="m504.5 497h-9.729v-51.375c0-12.056-9.808-21.863-21.863-21.863h-29.826c-.011-.134-21.005-247.635-21.04-248.043-.531-6.279-5.884-11.198-12.187-11.198h-39.849c-6.405 0-11.644 4.813-12.187 11.196-24.402 287.808.486-5.73-14.788 174.365h-72.688v-25.876c0-3.097-1.903-5.875-4.79-6.993l-14.105-5.465c-3.862-1.499-8.207.421-9.703 4.283s.422 8.207 4.284 9.703l9.314 3.609v167.657h-54.117v-43.17c0-4.143-3.358-7.5-7.5-7.5h-99.878c-4.142 0-7.5 3.357-7.5 7.5v43.17h-54.118v-254.087l183.812 71.205c3.863 1.5 8.207-.422 9.703-4.284s-.422-8.206-4.285-9.702l-140.696-54.504v-53.746c0-4.142-3.358-7.5-7.5-7.5s-7.5 3.358-7.5 7.5v47.935l-38.324-14.846c-2.305-.894-4.907-.593-6.948.806-2.041 1.398-3.261 3.713-3.261 6.188v265.035h-9.731c-4.142 0-7.5 3.357-7.5 7.5s3.358 7.5 7.5 7.5h497c4.143 0 7.5-3.357 7.5-7.5s-3.357-7.5-7.5-7.5zm-234.156-73.238v-24.943h68.552l-2.117 24.943zm157.683-.001h-76.194c1.116-13.158 3.514-41.424 4.225-49.811h18.878c4.143 0 7.5-3.357 7.5-7.5s-3.357-7.5-7.5-7.5h-17.606c.384-4.531 3.837-45.231 4.225-49.81h56.749l4.225 49.81h-17.606c-4.143 0-7.5 3.357-7.5 7.5s3.357 7.5 7.5 7.5h18.878zm-10.995-129.62h-54.204l4.225-49.81h45.754zm-44.481-114.62h34.759l4.225 49.81h-43.209zm-30.792 185.561-1.59 18.737h-69.825v-18.737zm-240.411 131.918v-35.67h84.879v35.67zm168.996 0v-58.238h202.563c3.784 0 6.863 3.079 6.863 6.863v51.375z"/><path d="m67.225 282.892c-2.295-.81-4.841-.454-6.827.951-1.987 1.406-3.167 3.688-3.167 6.122v42.939c0 4.143 3.358 7.5 7.5 7.5s7.5-3.357 7.5-7.5v-32.342l38.59 13.609v76.223h-38.591v-27.503c0-4.143-3.358-7.5-7.5-7.5s-7.5 3.357-7.5 7.5v35.003c0 4.143 3.358 7.5 7.5 7.5h158.11c4.142 0 7.5-3.357 7.5-7.5v-52.17c0-3.181-2.006-6.016-5.005-7.073zm58.595 36.57 35.93 12.671v58.262h-35.93zm89.52 70.933h-38.59v-52.972l38.59 13.609z"/></g></symbol>
  <symbol id="user" viewBox="0 0 360.66799 372.84984"><g transform="matrix(1,0,0,0.81699387,-47.85,0)"><g><g><path d="m 324.194,220.526 c -6.172,7.772 -13.106,14.947 -21.07,21.423 45.459,26.076 76.149,75.1 76.149,131.158 0,30.29 -66.367,54.018 -151.09,54.018 -84.723,0 -151.09,-23.728 -151.09,-54.018 0,-56.058 30.69,-105.082 76.149,-131.158 -7.963,-6.476 -14.897,-13.65 -21.07,-21.423 -50.624,31.969 -84.322,88.41 -84.322,152.581 0,19.439 10.644,46.53 61.355,65.201 31.632,11.647 73.886,18.06 118.979,18.06 45.093,0 87.347,-6.413 118.979,-18.06 50.71,-18.671 61.355,-45.762 61.355,-65.201 -0.002,-64.171 -33.7,-120.612 -84.324,-152.581 z" id="path2" /> <path d="m 228.182,239.795 c 56.833,0 100.597,-54.936 100.597,-119.897 C 328.779,54.907 284.993,0 228.182,0 171.349,0 127.585,54.936 127.585,119.897 c 0,64.991 43.787,119.898 100.597,119.898 z m 0,-210.552 c 39.344,0 71.354,40.667 71.354,90.654 0,49.987 -32.01,90.654 -71.354,90.654 -39.344,0 -71.354,-40.667 -71.354,-90.654 0,-49.987 32.01,-90.654 71.354,-90.654 z" /></g></g></g></symbol> 
  <symbol id="plus" viewBox="0 0 512 512"><g>	<g> <path d="M256,0C114.611,0,0,114.611,0,256s114.611,256,256,256s256-114.611,256-256S397.389,0,256,0z M256,486.4			C128.759,486.4,25.6,383.249,25.6,256S128.759,25.6,256,25.6S486.4,128.759,486.4,256S383.241,486.4,256,486.4z"/>	</g></g><g>	<g>		<path d="M384,243.2H268.8V128c0-7.066-5.734-12.8-12.8-12.8c-7.066,0-12.8,5.734-12.8,12.8v115.2H128			c-7.066,0-12.8,5.734-12.8,12.8c0,7.066,5.734,12.8,12.8,12.8h115.2V384c0,7.066,5.734,12.8,12.8,12.8 c7.066,0,12.8-5.734,12.8-12.8V268.8H384c7.066,0,12.8-5.734,12.8-12.8C396.8,248.934,391.066,243.2,384,243.2z"/>	</g></g></symbol>
  <symbol id="userDebt" viewBox="0 0 24 17"><path d="M16 8.5C16 7.12 17.12 6 18.5 6C19.88 6 21 7.12 21 8.5C21 9.88 19.88 11 18.5 11C17.12 11 16 9.88 16 8.5ZM13 0V17H24V0H13ZM22 13C20.9 13 20 13.9 20 15H17C17 13.9 16.11 13 15 13V4C16.11 4 17 3.11 17 2H20C20 3.11 20.9 4 22 4V13ZM7 3C8.1 3 9 3.9 9 5C9 6.1 8.1 7 7 7C5.9 7 5 6.1 5 5C5 3.9 5.9 3 7 3ZM7 1C4.79 1 3 2.79 3 5C3 7.21 4.79 9 7 9C9.21 9 11 7.21 11 5C11 2.79 9.21 1 7 1ZM7 11C3.13 11 0 12.79 0 15V17H11V15H2C2 14.42 3.75 13 7 13C8.83 13 10.17 13.45 11 13.95V11.72C9.87 11.27 8.5 11 7 11Z"/></symbol>
  <symbol id="commpany" viewBox="0 0 16 15"> <path d="M12.276 10H10.804V11.6667H12.276V10ZM12.276 6.66667H10.804V8.33333H12.276V6.66667ZM13.748 13.3333H7.86V11.6667H9.332V10H7.86V8.33333H9.332V6.66667H7.86V5H13.748V13.3333ZM6.388 3.33333H4.916V1.66667H6.388V3.33333ZM6.388 6.66667H4.916V5H6.388V6.66667ZM6.388 10H4.916V8.33333H6.388V10ZM6.388 13.3333H4.916V11.6667H6.388V13.3333ZM3.444 3.33333H1.972V1.66667H3.444V3.33333ZM3.444 6.66667H1.972V5H3.444V6.66667ZM3.444 10H1.972V8.33333H3.444V10ZM3.444 13.3333H1.972V11.6667H3.444V13.3333ZM7.86 3.33333V0H0.5V15H15.22V3.33333H7.86Z" /></symbol>
  <symbol id="orders" viewBox="0 0 19 21"><path d="M16.5 2.5H12.32C11.9 1.34 10.8 0.5 9.5 0.5C8.2 0.5 7.1 1.34 6.68 2.5H2.5C1.4 2.5 0.5 3.4 0.5 4.5V18.5C0.5 19.6 1.4 20.5 2.5 20.5H16.5C17.6 20.5 18.5 19.6 18.5 18.5V4.5C18.5 3.4 17.6 2.5 16.5 2.5ZM9.5 2.5C10.05 2.5 10.5 2.95 10.5 3.5C10.5 4.05 10.05 4.5 9.5 4.5C8.95 4.5 8.5 4.05 8.5 3.5C8.5 2.95 8.95 2.5 9.5 2.5ZM4.5 6.5H14.5V4.5H16.5V18.5H2.5V4.5H4.5V6.5ZM9.5 16.5V14.5H14.5V16.5H9.5ZM9.5 10.5V8.5H14.5V10.5H9.5ZM5.5 11.5V8.5H4.5V7.5H6.5V11.5H5.5ZM6.75 13.5C7.16 13.5 7.5 13.84 7.5 14.25C7.5 14.45 7.42 14.64 7.29 14.77L5.62 16.5H7.5V17.5H4.5V16.58L6.5 14.5H4.5V13.5H6.75Z" /></symbol>
  <symbol id="lock" viewBox="0 0 14 17"><path d="M7 12.6905C7.43098 12.6905 7.8443 12.5299 8.14905 12.2442C8.45379 11.9584 8.625 11.5708 8.625 11.1667C8.625 10.321 7.89375 9.64286 7 9.64286C6.56902 9.64286 6.1557 9.8034 5.85095 10.0892C5.54621 10.3749 5.375 10.7625 5.375 11.1667C5.375 11.5708 5.54621 11.9584 5.85095 12.2442C6.1557 12.5299 6.56902 12.6905 7 12.6905ZM11.875 5.83333C12.306 5.83333 12.7193 5.99388 13.024 6.27965C13.3288 6.56542 13.5 6.953 13.5 7.35714V14.9762C13.5 15.3803 13.3288 15.7679 13.024 16.0537C12.7193 16.3395 12.306 16.5 11.875 16.5H2.125C1.69402 16.5 1.2807 16.3395 0.975951 16.0537C0.671205 15.7679 0.5 15.3803 0.5 14.9762V7.35714C0.5 6.51143 1.23125 5.83333 2.125 5.83333H2.9375V4.30952C2.9375 3.29918 3.36551 2.33021 4.12738 1.61578C4.88925 0.901359 5.92256 0.5 7 0.5C7.53349 0.5 8.06177 0.598536 8.55465 0.789983C9.04754 0.981429 9.49538 1.26204 9.87262 1.61578C10.2499 1.96953 10.5491 2.38949 10.7533 2.85168C10.9574 3.31387 11.0625 3.80925 11.0625 4.30952V5.83333H11.875ZM7 2.02381C6.35353 2.02381 5.73355 2.26463 5.27643 2.69328C4.81931 3.12193 4.5625 3.70331 4.5625 4.30952V5.83333H9.4375V4.30952C9.4375 3.70331 9.18069 3.12193 8.72357 2.69328C8.26645 2.26463 7.64647 2.02381 7 2.02381Z"/></symbol>
  <symbol id="edit" viewBox="0 0 15 15"><path d="M8.94838 5.16667L9.66641 5.89778L2.73049 12.9444H2.02774V12.2289L8.94838 5.16667ZM11.6983 0.5C11.5073 0.5 11.3087 0.577778 11.1636 0.725556L9.76571 2.14889L12.6302 5.06556L14.0281 3.64222C14.326 3.33889 14.326 2.83333 14.0281 2.54556L12.2406 0.725556C12.0879 0.57 11.8969 0.5 11.6983 0.5ZM8.94838 2.98111L0.5 11.5833V14.5H3.3645L11.8129 5.89778L8.94838 2.98111Z"/></symbol>
  <symbol id="logout" viewBox="0 0 17 17"><path d="M12.0556 12.5V10.1H5.83333V6.9H12.0556V4.5L16.5 8.5L12.0556 12.5ZM10.2778 0.5C10.7493 0.5 11.2015 0.668571 11.5349 0.968629C11.8683 1.26869 12.0556 1.67565 12.0556 2.1V3.7H10.2778V2.1H2.27778V14.9H10.2778V13.3H12.0556V14.9C12.0556 15.3243 11.8683 15.7313 11.5349 16.0314C11.2015 16.3314 10.7493 16.5 10.2778 16.5H2.27778C1.80628 16.5 1.3541 16.3314 1.0207 16.0314C0.687301 15.7313 0.5 15.3243 0.5 14.9V2.1C0.5 1.67565 0.687301 1.26869 1.0207 0.968629C1.3541 0.668571 1.80628 0.5 2.27778 0.5H10.2778Z" /></symbol>
  <symbol id="home" viewBox="0 0 512 512"><g><g><path d="M 506.555,208.064 263.859,30.367 c -4.68,-3.426 -11.038,-3.426 -15.716,0 L 5.445,208.064 C -7.7801664,220.70804 30.25542,238.74706 37,232 L 256,76.6 474,232 c 16.40223,5.74874 41.49164,-17.50223 32.555,-23.93605 z" /> </g> </g> <g> <g> <path d="m 430.88587,228.75629 c -7.346,0 -22.49552,9.76805 -21.88587,17.08971 V 438 H 341 V 342.009 C 341,304.14364 302.46266,258.22698 256.001,257 210.65333,255.80243 170,304.18491 170,342.009 V 440 H 101 V 171.847 c 0,-7.347 -23.899,11.697 -31.245,11.697 -7.346,0 -13.303,-0.891 -13.303,6.456 v 280.9 c 0,7.347 5.957,13.303 13.303,13.303 h 133.029 c 6.996,0 12.721,-5.405 13.251,-12.267 0.032,-0.311 0.052,-0.651 0.052,-1.036 V 342.01 c 0,-22.009 17.905,-39.914 39.914,-39.914 22.009,0 39.914,17.906 39.914,39.914 V 470.9 c 0,0.383 0.02,0.717 0.052,1.024 0.524,6.867 6.251,12.279 13.251,12.279 h 133.029 c 7.347,0 13.303,-5.956 13.303,-13.303 V 245.847 c -0.001,-7.348 -17.31713,-17.09071 -24.66413,-17.09071 z" /> </g> </g> </symbol> 
  <symbol id="shopBasket" viewBox="0 0 455 455"> <g id="g602"><g id="g609"><g id="g605"><path d="m 279.66992,36.835938 c -0.73581,0.01651 -1.24384,0.48801 -1.98633,0.972656 L 253.785,56.970703 c -0.93759,1.665979 -1.12655,3.332068 1.039,4.998047 l 99.498,94.79297 -254.049,2.8e-4 98.325,-95.504188 c 2.90879,-2.084783 1.224,-4.77539 1.224,-4.77539 L 177.78516,38.335938 c -2.14466,-1.628116 -4.28894,-2.436123 -6.4336,0.267578 L 43,156.76172 3.8515625,156.52148 C 1.2677007,156.98204 0.01583264,158.44153 0,160.82812 L 1.4453125,196.871 c 0.2778313,1.50892 0.2698866,3.44867 4.8144531,3.129 H 18.115234 l 28.929688,172.89648 c 3.814,24.544 26.260609,43.77149 51.099609,43.77149 H 354.9043 c 24.778,0 47.32693,-19.15542 51.33593,-43.60742 l 15.35253,-82.60413 c -18.16367,-7.09213 -16.27303,-5.57667 -25.51073,-13.33142 -3.12956,-2.53542 -8.01536,-21.37646 -12.29157,-15.08916 L 362,378 H 90 L 62,200 h 330 l -8.20954,62.03584 c 7.23802,13.90817 3.7743,9.51971 12.29157,15.08916 2.02302,8.15271 23.76036,17.44362 25.51073,13.33142 L 436.77734,200 h 12.96289 c 2.11956,-0.31081 4.29213,-0.75404 4.53711,-4.814 l 0.96289,-34.0903 c -0.15783,-3.03764 -1.57096,-4.50644 -4.29687,-4.33398 H 411 L 283.02344,38.59375 c -1.65251,-1.335402 -2.61771,-1.774323 -3.35352,-1.757812 z"/></g></g></g> </symbol> 
  <symbol id="burgerMenu" viewBox="0 0 100 80"> <rect width="85" height="8"></rect> <rect y="30" width="90" height="8"></rect> <rect y="60" width="70" height="8"></rect> </symbol>
  <symbol id="search" viewBox="0 0 10 10"><path d="M3.71429 0C4.69938 0 5.64412 0.391325 6.34068 1.08789C7.03725 1.78445 7.42857 2.7292 7.42857 3.71429C7.42857 4.63429 7.09143 5.48 6.53714 6.13143L6.69143 6.28571H7.14286L10 9.14286L9.14286 10L6.28571 7.14286V6.69143L6.13143 6.53714C5.48 7.09143 4.63429 7.42857 3.71429 7.42857C2.7292 7.42857 1.78445 7.03725 1.08789 6.34068C0.391325 5.64412 0 4.69938 0 3.71429C0 2.7292 0.391325 1.78445 1.08789 1.08789C1.78445 0.391325 2.7292 0 3.71429 0V0ZM3.71429 1.14286C2.28571 1.14286 1.14286 2.28571 1.14286 3.71429C1.14286 5.14286 2.28571 6.28571 3.71429 6.28571C5.14286 6.28571 6.28571 5.14286 6.28571 3.71429C6.28571 2.28571 5.14286 1.14286 3.71429 1.14286Z" /></symbol>
</svg>


